<svg xmlns="http://www.w3.org/2000/svg" xmlns:xlink="http://www.w3.org/1999/xlink" width="1040" height="800" viewBox="0 0 1040 800">
  <defs>
    <clipPath id="clip-path">
      <path id="Trazado_16" data-name="Trazado 16" d="M3086.723,764.564l64.81,56.988v-1.889l-.127-.111V658.824l.127.111v-89.66L3049.2,659.256v287.3l.128-.076v62.766l37.393-32.88Zm-117.3,525.582-93.013,5.218V1069.142l157.916-93.959v47.259l.093-.082-65,57.152Zm-114.836,6.443-148.308,8.321c-8.619.482-7.62,6.964-1,6.964h272.026c2.886,0,6.533-1.9,6.885-4.7l.008-.278V1086.2l102.331-89.98V1311.9H3101.5V797.242l102.33,89.98V1311.9h14.78V880.538l-52.3-45.989V691.614l102.2,89.869v524.857l.023.183c.08,3.058,2.924,5.353,6,5.353h272.025c6.625,0,7.624-6.482-1-6.964l-144.69-8.118V1085.2L3283.3,981.8V774.8L3166.313,671.933V536.6l-131.89,115.972v302.79L2854.59,1062.457V1296.59Zm429.18-6.368,102.33,5.742V1091.881l-102.33-89.98Zm-234.44-280.971-.128.113Z" transform="translate(-2700.068 -536.6)" clip-rule="evenodd"/>
    </clipPath>
    <linearGradient id="linear-gradient" x1="0.523" y1="1" x2="0.523" y2="0.004" gradientUnits="objectBoundingBox">
      <stop offset="0" stop-color="#e9ab1a"/>
      <stop offset="0.322" stop-color="#f5c31b"/>
      <stop offset="0.678" stop-color="#fff990"/>
      <stop offset="1" stop-color="#fff17e"/>
    </linearGradient>
    <linearGradient id="linear-gradient-2" x1="265.25" y1="-93.38" x2="228.52" y2="-93.38" xlink:href="#linear-gradient"/>
    <linearGradient id="linear-gradient-3" x1="0.506" y1="1" x2="0.506" y2="0.004" gradientUnits="objectBoundingBox">
      <stop offset="0" stop-color="#ffff8b"/>
      <stop offset="0.322" stop-color="#fffc82"/>
      <stop offset="0.678" stop-color="#fff68a"/>
      <stop offset="1" stop-color="#e1ab18"/>
    </linearGradient>
    <linearGradient id="linear-gradient-4" x1="213.64" y1="-93.38" x2="176.9" y2="-93.38" xlink:href="#linear-gradient-3"/>
    <linearGradient id="linear-gradient-5" x1="0.516" y1="1" x2="0.516" y2="0.004" gradientUnits="objectBoundingBox">
      <stop offset="0" stop-color="#b46a11"/>
      <stop offset="0.322" stop-color="#d68d15"/>
      <stop offset="0.678" stop-color="#e7ac18"/>
      <stop offset="1" stop-color="#f8c73d"/>
    </linearGradient>
    <linearGradient id="linear-gradient-6" x1="162.03" y1="-93.38" x2="125.29" y2="-93.38" xlink:href="#linear-gradient-5"/>
    <linearGradient id="linear-gradient-7" x1="0.527" y1="1" x2="0.527" y2="0.004" gradientUnits="objectBoundingBox">
      <stop offset="0" stop-color="#f9c924"/>
      <stop offset="0.322" stop-color="#e4af18"/>
      <stop offset="0.678" stop-color="#fff98c"/>
      <stop offset="1" stop-color="#ffd440"/>
    </linearGradient>
    <linearGradient id="linear-gradient-8" x1="110.41" y1="-93.38" x2="73.68" y2="-93.38" xlink:href="#linear-gradient-7"/>
    <linearGradient id="linear-gradient-9" x1="0.51" y1="1" x2="0.51" y2="0.004" gradientUnits="objectBoundingBox">
      <stop offset="0" stop-color="#ecc440"/>
      <stop offset="0.322" stop-color="#fffa8a"/>
      <stop offset="0.678" stop-color="#ddac17"/>
      <stop offset="1" stop-color="#ffff95"/>
    </linearGradient>
    <linearGradient id="linear-gradient-10" x1="58.8" y1="-93.38" x2="22.06" y2="-93.38" xlink:href="#linear-gradient-9"/>
    <clipPath id="clip-Web_1280_1">
      <rect width="1040" height="800"/>
    </clipPath>
  </defs>
  <g id="Web_1280_1" data-name="Web 1280 – 1" clip-path="url(#clip-Web_1280_1)">
    <g id="Capa_x0020_1" transform="translate(-20.572 0.083)">
      <rect id="Rectángulo_1" data-name="Rectángulo 1" width="1056" height="816" transform="translate(-0.428 -0.083)" fill="none"/>
      <g id="Grupo_2" data-name="Grupo 2" transform="translate(101.713 20.281)" clip-path="url(#clip-path)">
        <g id="Grupo_1" data-name="Grupo 1" transform="translate(-5880.303 -340.445)">
          <g id="_2288124016208">
            <g id="Layer_1" data-name="Layer 1">
              <path id="Trazado_1" data-name="Trazado 1" d="M-152055.969-8471.25c63.8.069,120.188,16.261,139.594,40.055v1.718a21.042,21.042,0,0,1,3.844,6.015,21.566,21.566,0,0,1,2.75,9.772V-7052.01a21.955,21.955,0,0,1-2.734,9.875,23.036,23.036,0,0,1-3.859,6.018v1.611c-19.281,23.838-75.719,40.07-139.578,40.163h-713.125c-63.844-.07-120.219-16.32-139.344-40.166l-1.359-1.611-3.844-6.014a25.066,25.066,0,0,1-2.453-9.88l-.016-1361.677a24.865,24.865,0,0,1,2.469-9.773l3.844-6.013,1.375-1.718c19.141-23.823,75.547-40.042,139.328-40.057h713.109Z" transform="translate(152916.094 8471.313)" fill="rgba(77,77,77,0.4)"/>
              <path id="Trazado_2" data-name="Trazado 2" d="M-114567.406-8471.277c63.781.015,120.188,16.233,139.32,40.055v1.718c4.055,5.1,6.2,10.439,6.32,15.788l-.008,1361.678v.122a21.38,21.38,0,0,1-2.461,9.754,33.384,33.384,0,0,1-3.852,6.016v1.611c-19.109,23.844-75.484,40.093-139.312,40.163h-713.109c-63.891-.092-120.312-16.325-139.609-40.161v-1.611a23.007,23.007,0,0,1-3.844-6.018,21.683,21.683,0,0,1-2.742-9.878V-8413.717a21.647,21.647,0,0,1,2.734-9.774,21.517,21.517,0,0,1,3.844-6.011v-1.718c19.414-23.8,75.8-39.988,139.6-40.059h713.117Z" transform="translate(116843.32 8471.34)" fill="rgba(77,77,77,0.4)"/>
              <path id="Trazado_3" data-name="Trazado 3" d="M-77099.2-8471.25c63.8.069,120.2,16.261,139.609,40.055v1.718a21.144,21.144,0,0,1,3.828,6.015,21.2,21.2,0,0,1,2.477,9.725v1361.851a21.5,21.5,0,0,1-2.469,9.755,22.788,22.788,0,0,1-3.844,6.017v1.611c-19.008,23.963-75.508,40.351-139.6,40.485H-77812.3c-63.836-.071-120.219-16.32-139.328-40.166l-1.375-1.611a33.672,33.672,0,0,1-3.828-6.011,21.414,21.414,0,0,1-2.469-9.758V-8413.688c.109-5.349,2.266-10.684,6.3-15.786l1.375-1.718c19.133-23.823,75.547-40.041,139.344-40.056h713.086Z" transform="translate(80791.719 8471.313)" fill="rgba(77,77,77,0.4)"/>
              <path id="Trazado_4" data-name="Trazado 4" d="M-39632.844-8471.3c63.781.015,120.2,16.232,139.324,40.055v1.718a48.651,48.651,0,0,1,3.844,6.013,24.938,24.938,0,0,1,2.465,9.772l.012,1361.682a25.689,25.689,0,0,1-2.465,9.876l-3.848,6.014v1.611c-19.109,23.847-75.492,40.1-139.32,40.166h-713.109c-63.895-.092-120.316-16.324-139.613-40.162v-1.611l-3.84-6.013a25.386,25.386,0,0,1-2.461-9.884V-8413.74a24.987,24.987,0,0,1,2.461-9.773c0-2.147,2.473-4.081,3.848-6.013v-1.718c19.4-23.8,75.789-39.987,139.59-40.058h713.113Z" transform="translate(44740.059 8471.362)" fill="rgba(77,77,77,0.4)"/>
              <path id="Trazado_5" data-name="Trazado 5" d="M-2200.769-8471.327c63.776.015,120.191,16.232,139.322,40.055l1.372,1.718c4.046,5.1,6.2,10.438,6.317,15.788l0,1361.678c0,.037,0,.085,0,.122a21.456,21.456,0,0,1-2.464,9.754,33.275,33.275,0,0,1-3.841,6.016l-1.372,1.611c-19.109,23.844-75.489,40.093-139.322,40.163h-713.105c-63.852-.07-120.229-16.319-139.345-40.166l-1.372-1.61a33.039,33.039,0,0,1-3.829-6.012,21.4,21.4,0,0,1-2.472-9.757v-1361.8c.112-5.35,2.264-10.685,6.31-15.787l1.371-1.718c19.134-23.823,75.548-40.041,139.334-40.056h713.1Z" transform="translate(8723.498 8471.39)" fill="rgba(77,77,77,0.4)"/>
              <path id="Trazado_6" data-name="Trazado 6" d="M-148010.344-7051.611V-8413.719c0-31.785-65.844-57.562-147.016-57.562H-148871c-81.187,0-147.016,25.775-147.016,57.561v1362.108c0,31.783,65.828,57.559,147.016,57.559h713.641c81.172,0,147.016-25.776,147.016-57.56Z" transform="translate(149165.313 8471.342)" fill="url(#linear-gradient)"/>
              <path id="Trazado_7" data-name="Trazado 7" d="M-148033.937-8415.3c-3.422-26.258-58.844-46.871-126-46.871-1.875,0-3.8.019-5.641.048h-683.75c-1.875-.029-3.781-.048-5.672-.048-67.156,0-122.547,20.613-126,46.872v1361.678c3.281,26.3,58.766,46.976,126.031,46.976,1.859,0,3.766-.019,5.641-.047h683.75c1.844.029,3.75.047,5.641.047,67.25,0,122.719-20.679,126-46.98V-8415.3m30.172,0v1361.682c-4,32.313-72.109,57.729-154.781,57.729-2.344,0-4.7-.022-7.031-.06h-683.75c-2.344.037-4.7.06-7.047.06-82.656,0-150.781-25.416-154.766-57.733l-.016-1361.674c4.141-32.274,72.219-57.623,154.766-57.623,2.344,0,4.734.022,7.063.06l683.75,0c2.328-.04,4.719-.062,7.047-.062,82.547,0,150.641,25.349,154.781,57.623h-.016Z" transform="translate(149158.703 8472.92)" fill="url(#linear-gradient-2)"/>
              <path id="Trazado_8" data-name="Trazado 8" d="M-110543.016-7051.611V-8413.719c0-31.785-65.844-57.562-147.016-57.562h-713.656c-81.172,0-147,25.775-147,57.561v1362.108c0,31.783,65.828,57.559,147.008,57.559h713.648c81.188,0,147.016-25.776,147.016-57.56Z" transform="translate(113113.773 8471.342)" fill="url(#linear-gradient-3)"/>
              <path id="Trazado_9" data-name="Trazado 9" d="M-110573.086-8415.223c-3.578-26.273-59.039-46.866-126.25-46.866-1.8,0-3.617.018-5.391.042h-684.031c-1.867-.027-3.773-.045-5.656-.045-67.156,0-122.562,20.612-125.992,46.87l-.008,1361.678c3.289,26.3,58.75,46.977,126.016,46.977q2.824,0,5.641-.048h684.023c1.789.025,3.594.044,5.383.044,67.3,0,122.836-20.659,126.266-46.973V-8415.223m30.172,0v1361.682c-4.133,32.331-72.344,57.724-155.039,57.724-2.242,0-4.547-.022-6.781-.06h-684.023c-2.328.042-4.7.064-7.047.064-82.648,0-150.781-25.416-154.773-57.733l-.008-1361.674c4.141-32.273,72.234-57.622,154.773-57.622,2.344,0,4.727.021,7.063.059l684.016,0c2.258-.037,4.547-.059,6.8-.059,82.6,0,150.75,25.325,155.039,57.62l-.016,0Z" transform="translate(113113.672 8472.845)" fill="url(#linear-gradient-4)"/>
              <path id="Trazado_10" data-name="Trazado 10" d="M-73082.984-7051.611V-8413.719c0-31.785-65.836-57.562-147.016-57.562h-713.648c-81.172,0-147.008,25.775-147.008,57.561l-.008,1362.108c.008,31.783,65.844,57.559,147.016,57.559H-73230c81.18,0,147.008-25.776,147.008-57.56Z" transform="translate(77069.258 8471.342)" fill="url(#linear-gradient-5)"/>
              <path id="Trazado_11" data-name="Trazado 11" d="M-73092.312-8415.3c-3.437-26.258-58.844-46.871-125.992-46.871-1.891,0-3.8.019-5.664.048h-684.023c-1.781-.026-3.594-.043-5.391-.043-67.211,0-122.672,20.592-126.258,46.864v1361.683c3.445,26.314,58.969,46.972,126.273,46.972,1.8,0,3.594-.018,5.375-.042l684.023,0q2.813.044,5.641.048c67.266,0,122.734-20.679,126.016-46.98V-8415.3m30.164,0v1361.683c-3.992,32.313-72.117,57.729-154.773,57.729-2.344,0-4.711-.022-7.039-.059h-684.031c-1.953.02-3.984.042-5.953.042-82.672,0-150.891-25.386-155.055-57.71l.008-1361.682c4.289-32.293,72.438-57.619,155.031-57.619,2.258,0,4.555.022,6.789.059h683.211c2.32-.04,4.7-.062,7.055-.062,82.539,0,150.633,25.349,154.766,57.623h0Z" transform="translate(77048.422 8472.92)" fill="url(#linear-gradient-6)"/>
              <path id="Trazado_12" data-name="Trazado 12" d="M-35615.617-7051.611V-8413.719c0-31.785-65.828-57.562-147-57.562h-713.656c-81.18,0-147.012,25.775-147.012,57.561v1362.108c0,31.783,65.832,57.559,147.012,57.559h713.656c81.176,0,147-25.776,147-57.56Z" transform="translate(41017.672 8471.342)" fill="url(#linear-gradient-7)"/>
              <path id="Trazado_13" data-name="Trazado 13" d="M-35645.973-8415.3c-3.445-26.258-58.848-46.871-126-46.871-1.879,0-3.789.019-5.652.048h-683.754c-1.863-.029-3.77-.048-5.652-.048-67.152,0-122.562,20.613-126,46.872v1361.678c3.281,26.3,58.75,46.976,126.012,46.976,1.879,0,3.773-.019,5.637-.047h683.762c1.859.029,3.754.047,5.633.047,67.262,0,122.73-20.679,126.012-46.98l0-1361.677m30.172,0v1361.682c-4,32.313-72.133,57.729-154.785,57.729-2.344,0-4.711-.022-7.035-.06h-683.758c-2.332.037-4.7.06-7.043.06-82.656,0-150.785-25.416-154.773-57.733l0-1361.674c4.133-32.274,72.223-57.623,154.766-57.623,2.344,0,4.727.022,7.059.06l683.754,0c2.32-.04,4.707-.062,7.051-.062,82.539,0,150.633,25.349,154.777,57.623h-.008Z" transform="translate(41017.586 8472.92)" fill="url(#linear-gradient-8)"/>
              <path id="Trazado_14" data-name="Trazado 14" d="M1844.515-7051.611V-8413.719c0-31.785-65.833-57.562-147.01-57.562H983.851c-81.177,0-147.01,25.775-147.01,57.561v1362.108c0,31.783,65.833,57.559,147.01,57.559H1697.5c81.177,0,147.01-25.776,147.01-57.56Z" transform="translate(4973.057 8471.342)" fill="url(#linear-gradient-9)"/>
              <path id="Trazado_15" data-name="Trazado 15" d="M1814.339-8415.2c-3.441-26.258-58.844-46.87-126-46.87-1.879,0-3.79.018-5.654.047l-684.028,0c-1.781-.028-3.6-.045-5.393-.045-67.209,0-122.672,20.592-126.254,46.865l0,1361.681c3.443,26.314,58.969,46.973,126.271,46.973,1.791,0,3.6-.019,5.371-.042h682.944c2.218.038,4.5.069,6.73.069,67.3,0,122.745-20.686,126.01-47l.007-1361.677m30.171,0v1361.681c-3.551,32.456-71.826,58.071-154.824,58.071-2.687,0-5.429-.03-8.1-.081H998.658c-2.311.038-4.675.061-7,.061-82.978,0-151.237-25.6-154.812-58.052l0-1361.677c4.133-32.274,72.224-57.623,154.765-57.623,2.345,0,4.729.022,7.057.06l682.932,0c2.323-.04,4.707-.062,7.052-.062,82.541,0,150.632,25.349,154.775,57.623h1.091Z" transform="translate(4973.059 8472.822)" fill="url(#linear-gradient-10)"/>
            </g>
          </g>
        </g>
      </g>
      <path id="Trazado_17" data-name="Trazado 17" d="M3086.723,764.564l64.81,56.988v-1.889l-.127-.111V658.824l.127.111v-89.66L3049.2,659.256v287.3l.128-.076v62.766l37.393-32.88Zm-117.3,525.582-93.013,5.218V1069.142l157.916-93.959v47.259l.093-.082-65,57.152Zm-114.836,6.443-148.308,8.321c-8.619.482-7.62,6.964-1,6.964h272.026c2.886,0,6.533-1.9,6.885-4.7l.008-.278V1086.2l102.331-89.98V1311.9H3101.5V797.242l102.33,89.98V1311.9h14.78V880.538l-52.3-45.989V691.614l102.2,89.869v524.857l.023.183c.08,3.058,2.924,5.353,6,5.353h272.025c6.625,0,7.624-6.482-1-6.964l-144.69-8.118V1085.2L3283.3,981.8V774.8L3166.313,671.933V536.6l-131.89,115.972v302.79L2854.59,1062.457V1296.59Zm429.18-6.368,102.33,5.742V1091.881l-102.33-89.98Zm-234.44-280.971-.128.113Z" transform="translate(-2598.354 -516.319)" fill="none" fill-rule="evenodd"/>
    </g>
  </g>
</svg>
