<svg id="Layer_1" enable-background="new 0 0 511.999 511.999" height="512" viewBox="0 0 511.999 511.999" width="512" xmlns="http://www.w3.org/2000/svg" fill="white"><g><path d="m224 408c-22.06 0-40 17.94-40 40s17.94 40 40 40 40-17.94 40-40-17.94-40-40-40zm0 56c-8.84 0-16-7.16-16-16s7.16-16 16-16 16 7.16 16 16-7.16 16-16 16z"/><path d="m408 408c-22.06 0-40 17.94-40 40s17.94 40 40 40 40-17.94 40-40-17.94-40-40-40zm0 56c-8.84 0-16-7.16-16-16s7.16-16 16-16 16 7.16 16 16-7.16 16-16 16z"/><path d="m448 376h-295.77c-2.424-21.172 14.264-40 35.77-40h65c1.657 0 3-1.343 3-3v-66c0-1.657-1.343-3-3-3h-82.58l-3.14-16h85.72c1.657 0 3-1.343 3-3v-58c0-1.657-1.343-3-3-3h-98.24l-3.13-16h101.37c1.657 0 3-1.343 3-3v-66c0-1.657-1.343-3-3-3h-115.46l-7.16-36.61c-2.2-11.23-12.1-19.39-23.55-19.39h-10.83v-8c0-4.418-3.582-8-8-8h-63.453c-13.422 0-24.766 10.983-24.544 24.402.216 13.045 10.901 23.598 23.997 23.598h64c4.418 0 8-3.582 8-8v-8h10.83c3.81 0 7.12 2.72 7.85 6.47.473 2.414 51.34 262.315 51.34 262.42-22.909 10.737-34.91 36.397-28.16 60.891.038.186.155.585.2.72 4.88 16.792 18.021 30.102 34.715 35.22.902.277 1.863-.151 2.321-.977 21.623-38.983 78.713-38.202 98.948 2.14.341.679 1.027 1.117 1.787 1.117h80.338c.76 0 1.446-.438 1.787-1.117 20.008-39.874 76.63-41.503 98.718-2.551.541.954 1.734 1.333 2.7.813 2.037-1.095 3.929-2.496 5.616-4.176 14.957-15.024 4.439-40.97-16.99-40.97z"/><path d="m365 96h-90c-1.657 0-3 1.343-3 3v66c0 1.657 1.343 3 3 3h90c1.657 0 3-1.343 3-3v-66c0-1.657-1.343-3-3-3z"/><path d="m365 184h-90c-1.657 0-3 1.343-3 3v58c0 1.657 1.343 3 3 3h90c1.657 0 3-1.343 3-3v-58c0-1.657-1.343-3-3-3z"/><path d="m365 264h-90c-1.657 0-3 1.343-3 3v66c0 1.657 1.343 3 3 3h90c1.657 0 3-1.343 3-3v-66c0-1.657-1.343-3-3-3z"/><path d="m384 333c0 1.657 1.343 3 3 3h76.57c3.87 0 7.19-2.77 7.87-6.58l11.172-61.887c.332-1.84-1.082-3.533-2.952-3.533h-92.66c-1.657 0-3 1.343-3 3z"/><path d="m387 248h96.633c1.451 0 2.695-1.039 2.952-2.467l10.467-58c.332-1.84-1.082-3.533-2.952-3.533h-107.1c-1.657 0-3 1.343-3 3v58c0 1.657 1.343 3 3 3z"/><path d="m504 96h-117c-1.657 0-3 1.343-3 3v66c0 1.657 1.343 3 3 3h111.063c1.451 0 2.694-1.039 2.952-2.467l10.855-60.113c.886-4.919-2.892-9.42-7.87-9.42z"/></g></svg>